<svg width="32" height="22" viewBox="0 0 32 22" fill="none" xmlns="http://www.w3.org/2000/svg">
  <path d="M26 10C25.912 10 25.827 10.01 25.74 10.013L24.237 3H28V1H23C22.8508 0.999955 22.7035 1.03329 22.5689 1.09755C22.4343 1.16181 22.3157 1.25538 22.222 1.37139C22.1282 1.48741 22.0616 1.62293 22.0269 1.76804C21.9923 1.91314 21.9906 2.06415 22.022 2.21L22.62 5H12.387L11.387 2H14V0H6.99997V2H9.27997L10.321 5.123L7.75097 10.263C6.58459 9.90577 5.33703 9.91255 4.1746 10.2824C3.01218 10.6523 1.9901 11.3677 1.24463 12.3333C0.499162 13.2989 0.0657147 14.4687 0.00207064 15.6869C-0.0615734 16.9051 0.24761 18.1138 0.888404 19.1518C1.5292 20.1898 2.47116 21.0078 3.58872 21.4968C4.70627 21.9858 5.94634 22.1225 7.14359 21.8888C8.34085 21.655 9.43841 21.0619 10.29 20.1885C11.1415 19.315 11.7067 18.2028 11.91 17H14.52C14.82 17.0008 15.1164 16.9337 15.3868 16.8038C15.6573 16.674 15.895 16.4846 16.082 16.25L23.14 7.426L23.784 10.43C22.4005 10.9845 21.2734 12.035 20.623 13.3761C19.9726 14.7172 19.8455 16.2526 20.2666 17.6824C20.6878 19.1122 21.6268 20.3336 22.9003 21.108C24.1739 21.8824 25.6904 22.1542 27.1536 21.8703C28.6168 21.5864 29.9216 20.7671 30.8131 19.5726C31.7046 18.3781 32.1187 16.8941 31.9745 15.4106C31.8303 13.9271 31.1382 12.5506 30.0334 11.5501C28.9286 10.5495 27.4905 9.99687 26 10ZM5.99997 20C5.43857 20.0011 4.88323 19.884 4.37007 19.6563C3.85691 19.4286 3.39742 19.0955 3.02149 18.6785C2.64556 18.2616 2.36161 17.7702 2.1881 17.2363C2.01459 16.7023 1.95541 16.1379 2.01442 15.5796C2.07342 15.0213 2.24929 14.4817 2.53057 13.9958C2.81186 13.51 3.19227 13.0888 3.64705 12.7596C4.10184 12.4305 4.62082 12.2008 5.17023 12.0854C5.71965 11.97 6.2872 11.9716 6.83597 12.09L5.10597 15.553L5.11497 15.557C5.04232 15.6936 5.00292 15.8453 4.99997 16C4.99845 16.225 5.07339 16.4439 5.21253 16.6207C5.35166 16.7976 5.54672 16.9219 5.76577 16.9734C5.98482 17.0249 6.21485 17.0004 6.41819 16.9041C6.62153 16.8077 6.78611 16.6451 6.88497 16.443L6.89497 16.447L8.61697 13C9.2338 13.5316 9.67286 14.2396 9.87498 15.0284C10.0771 15.8172 10.0326 16.6491 9.74743 17.4118C9.46227 18.1746 8.95016 18.8316 8.28012 19.2944C7.61007 19.7571 6.81428 20.0034 5.99997 20ZM11.91 15C11.6481 13.4613 10.7969 12.0853 9.53697 11.164L11.215 7.806L13.613 15H11.91ZM15.368 13.94L13.054 7H20.919L15.368 13.94ZM26 20C25.0996 20.0029 24.2247 19.7009 23.5177 19.1433C22.8107 18.5857 22.3132 17.8052 22.1062 16.9289C21.8992 16.0526 21.9948 15.132 22.3775 14.317C22.7602 13.5019 23.4075 12.8404 24.214 12.44L25.022 16.21L25.042 16.206C25.0861 16.4283 25.2054 16.6286 25.3799 16.7732C25.5544 16.9178 25.7734 16.9979 26 17C26.2652 17 26.5195 16.8946 26.7071 16.7071C26.8946 16.5196 27 16.2652 27 16C26.9937 15.93 26.9796 15.8609 26.958 15.794L26.978 15.79L26.17 12.017C27.2163 12.0574 28.2048 12.5071 28.9227 13.2693C29.6407 14.0315 30.0304 15.0452 30.0082 16.092C29.9859 17.1389 29.5533 18.1351 28.8036 18.866C28.0539 19.597 27.047 20.0042 26 20Z" fill="#212B36" />
</svg>
