<svg width="64" height="64" viewBox="0 0 64 64" fill="none" xmlns="http://www.w3.org/2000/svg">
<path fill-rule="evenodd" clip-rule="evenodd" d="M20.9147 10.1393C26.3253 6.93665 29.0293 5.33398 32 5.33398C34.9707 5.33398 37.6747 6.93398 43.0853 10.1393L44.9147 11.222C50.3253 14.4273 53.0293 16.03 54.5147 18.6673C56 21.3073 56 24.5073 56 30.918V33.0833C56 39.4913 56 42.6967 54.5147 45.334C53.0293 47.974 50.3253 49.574 44.9147 52.7767L43.0853 53.862C37.6747 57.0647 34.9707 58.6673 32 58.6673C29.0293 58.6673 26.3253 57.0673 20.9147 53.862L19.0853 52.7767C13.6747 49.5767 10.9707 47.9713 9.48533 45.334C8 42.694 8 39.494 8 33.0833V30.918C8 24.5073 8 21.3047 9.48533 18.6673C10.9707 16.0273 13.6747 14.4273 19.0853 11.222L20.9147 10.1393ZM34.6667 42.6673C34.6667 43.3746 34.3857 44.0528 33.8856 44.5529C33.3855 45.053 32.7072 45.334 32 45.334C31.2928 45.334 30.6145 45.053 30.1144 44.5529C29.6143 44.0528 29.3333 43.3746 29.3333 42.6673C29.3333 41.9601 29.6143 41.2818 30.1144 40.7817C30.6145 40.2816 31.2928 40.0007 32 40.0007C32.7072 40.0007 33.3855 40.2816 33.8856 40.7817C34.3857 41.2818 34.6667 41.9601 34.6667 42.6673ZM32 16.6673C32.5304 16.6673 33.0391 16.878 33.4142 17.2531C33.7893 17.6282 34 18.1369 34 18.6673V34.6673C34 35.1978 33.7893 35.7065 33.4142 36.0815C33.0391 36.4566 32.5304 36.6673 32 36.6673C31.4696 36.6673 30.9609 36.4566 30.5858 36.0815C30.2107 35.7065 30 35.1978 30 34.6673V18.6673C30 18.1369 30.2107 17.6282 30.5858 17.2531C30.9609 16.878 31.4696 16.6673 32 16.6673Z" fill="#3B7B62"/>
</svg>
