<svg width="242" height="241" viewBox="0 0 242 241" fill="none" xmlns="http://www.w3.org/2000/svg">
<path d="M17.077 181C6.57226 162.805 1.02852 142.172 1.00011 121.162C0.971702 100.153 6.45963 79.5043 16.9151 61.2813C27.3705 43.0583 42.427 27.8996 60.5789 17.3212C78.7308 6.74278 99.3419 1.11538 120.351 1.00176C141.36 0.888126 162.031 6.29225 180.296 16.6737C198.561 27.0551 213.781 42.05 224.433 60.1589C235.085 78.2677 240.796 98.8558 240.995 119.864C241.193 140.873 235.873 161.565 225.566 179.872L200.47 165.743C208.304 151.83 212.347 136.103 212.196 120.137C212.045 104.17 207.704 88.5235 199.609 74.7608C191.513 60.998 179.947 49.6019 166.065 41.712C152.183 33.8221 136.474 29.715 120.507 29.8013C104.54 29.8877 88.8754 34.1645 75.08 42.2041C61.2846 50.2437 49.8416 61.7643 41.8955 75.6138C33.9493 89.4632 29.7785 105.156 29.8001 121.123C29.8217 137.09 34.0349 152.772 42.0185 166.6L17.077 181Z" stroke="#30624E" stroke-width="2"/>
<path d="M17.077 181C6.54262 162.754 0.997794 142.056 1 120.987C1.00221 99.9188 6.55137 79.222 17.0895 60.9782L42.028 75.3835C34.019 89.2487 29.8017 104.978 29.8 120.99C29.7983 137.003 34.0124 152.733 42.0185 166.6L17.077 181Z" fill="white" fill-opacity="0.12" stroke="#30624E" stroke-width="2"/>
<path d="M224.923 61C235.457 79.246 241.002 99.9439 241 121.013C240.998 142.081 235.449 162.778 224.91 181.022L199.972 166.617C207.981 152.751 212.198 137.022 212.2 121.01C212.202 104.997 207.988 89.267 199.982 75.4L224.923 61Z" fill="white" fill-opacity="0.8" stroke="#30624E" stroke-width="2"/>
<path d="M121 1C142.069 1 162.766 6.547 181.011 17.0832C199.256 27.6195 214.405 42.7736 224.936 61.0218L199.991 75.4166C191.988 61.5479 180.474 50.0308 166.608 42.0233C152.742 34.0157 137.012 29.8 121 29.8V1Z" fill="white" fill-opacity="0.56" stroke="#30624E" stroke-width="2"/>
<path d="M17.077 61C27.6113 42.754 42.7638 27.6031 61.0109 17.0707C79.2579 6.53826 99.9564 0.995602 121.025 1L121.019 29.8C105.007 29.7967 89.276 34.0091 75.4083 42.0137C61.5405 50.0184 50.0246 61.533 42.0185 75.4L17.077 61Z" fill="white" fill-opacity="0.24" stroke="#30624E" stroke-width="2"/>
<path d="M47.367 163.6C39.8877 150.645 35.9508 135.95 35.9524 120.991C35.954 106.032 39.8939 91.3377 47.3759 78.3846C54.858 65.4315 65.6186 54.6766 78.5756 47.2013C91.5326 39.726 106.229 35.7938 121.188 35.8001C136.147 35.8063 150.84 39.7508 163.791 47.237C176.742 54.7231 187.493 65.487 194.964 78.4464C202.436 91.4057 206.363 106.104 206.352 121.062C206.341 136.021 202.392 150.713 194.902 163.662L192.69 162.382C199.955 149.822 203.786 135.571 203.796 121.061C203.807 106.551 199.997 92.2936 192.75 79.723C185.503 67.1524 175.074 56.7114 162.512 49.4499C149.95 42.1883 135.697 38.3621 121.187 38.3561C106.677 38.35 92.4212 42.1642 79.8529 49.4153C67.2846 56.6663 56.8469 67.0986 49.5892 79.6631C42.3316 92.2276 38.5099 106.481 38.5084 120.991C38.5069 135.501 42.3256 149.756 49.5806 162.322L47.367 163.6Z" fill="#D4B179"/>
<path d="M176.016 26.3765C176.719 25.8546 177.706 26.4244 177.606 27.2942L174.445 54.6643C174.363 55.3791 173.575 55.7754 172.952 55.4156L153.989 44.4676C153.366 44.1078 153.316 43.2275 153.893 42.7986L176.016 26.3765Z" fill="#D4B179"/>
<path d="M109.547 93.0312C109.578 94.1354 109.339 95.1042 108.828 95.9375C108.318 96.7708 107.594 97.4115 106.656 97.8594C105.719 98.3073 104.63 98.5312 103.391 98.5312C102.276 98.5312 101.37 98.3698 100.672 98.0469C100.724 101.536 100.75 104.854 100.75 108H98.875H97.0625C96.9583 102.208 96.7865 97.7865 96.5469 94.7344C96.3177 91.6823 96 89.4271 95.5938 87.9688L99.7969 85.9219C99.9635 86.7448 100.12 87.7604 100.266 88.9688C100.411 90.1771 100.505 91.2552 100.547 92.2031L100.578 93C100.807 93.1875 101.146 93.3229 101.594 93.4062C102.052 93.4896 102.641 93.5312 103.359 93.5312C103.922 93.5312 104.427 93.4688 104.875 93.3438C105.333 93.2188 105.698 93.0469 105.969 92.8281C105.844 91.6719 105.75 90.75 105.688 90.0625C105.521 88.2917 105.417 87.276 105.375 87.0156L107.453 86.5312L109.391 86.0781L109.547 93.0312ZM124.422 90.1719C125.755 90.974 126.792 91.8281 127.531 92.7344C128.281 93.6302 128.818 94.7083 129.141 95.9688C129.464 97.2188 129.625 98.8021 129.625 100.719C129.625 103.365 129.167 105.292 128.25 106.5C127.333 107.708 125.995 108.312 124.234 108.312C123.38 108.312 122.651 108.172 122.047 107.891C121.453 107.609 121.016 107.224 120.734 106.734C120.318 107.234 119.745 107.625 119.016 107.906C118.297 108.177 117.5 108.312 116.625 108.312C115.188 108.312 114.047 107.87 113.203 106.984C112.359 106.089 111.938 104.719 111.938 102.875C111.938 100.969 112.24 98.9688 112.844 96.875C113.448 94.7708 114.349 92.6354 115.547 90.4688C114.755 90.1562 114.156 89.9271 113.75 89.7812C114.062 88.7812 114.245 88.1771 114.297 87.9688C114.693 86.6667 114.927 85.8906 115 85.6406C117.271 86.5885 119.125 87.4115 120.562 88.1094C122.01 88.7969 123.297 89.4844 124.422 90.1719ZM125.734 103.016C125.818 102.224 125.859 101.495 125.859 100.828C125.859 99.5156 125.76 98.4531 125.562 97.6406C125.365 96.8177 125.031 96.1198 124.562 95.5469C124.094 94.9635 123.422 94.4219 122.547 93.9219C121.214 93.1406 119.896 92.4375 118.594 91.8125C117.625 93.5312 116.891 95.1875 116.391 96.7812C115.891 98.375 115.641 99.8542 115.641 101.219C115.641 101.958 115.807 102.495 116.141 102.828C116.474 103.151 116.984 103.312 117.672 103.312C118.078 103.312 118.453 103.26 118.797 103.156C119.151 103.052 119.438 102.901 119.656 102.703C119.5 101.786 119.411 100.682 119.391 99.3906C119.568 99.349 120.052 99.2552 120.844 99.1094L122.094 98.875C122.167 100.271 122.255 101.26 122.359 101.844C122.474 102.427 122.667 102.818 122.938 103.016C123.208 103.214 123.656 103.312 124.281 103.312C124.604 103.312 124.891 103.286 125.141 103.234C125.401 103.182 125.599 103.109 125.734 103.016ZM147.312 98.125C145.365 98.9271 143.839 99.6667 142.734 100.344C141.63 101.021 140.505 101.964 139.359 103.172C138.214 104.37 136.698 106.193 134.812 108.641L133.922 107.734L132.141 105.891C133.182 104.245 134.115 102.885 134.938 101.812C135.76 100.729 136.557 99.8594 137.328 99.2031C136.526 98.974 135.812 98.5885 135.188 98.0469C134.573 97.5052 134.094 96.8438 133.75 96.0625C133.417 95.2708 133.25 94.401 133.25 93.4531C133.25 92.0156 133.552 90.724 134.156 89.5781C134.76 88.4219 135.547 87.526 136.516 86.8906C137.495 86.2448 138.526 85.9219 139.609 85.9219C140.203 85.9219 140.922 86.0365 141.766 86.2656C142.62 86.4948 143.594 86.8125 144.688 87.2188L144.25 88.75L144.141 89.1719L143.75 90.5938L138.562 89.8594C138.104 90.224 137.75 90.6719 137.5 91.2031C137.25 91.724 137.125 92.2552 137.125 92.7969C137.125 93.6302 137.396 94.2917 137.938 94.7812C138.49 95.2604 139.333 95.5 140.469 95.5C141.208 95.5 142.062 95.349 143.031 95.0469C144.01 94.7344 144.979 94.3438 145.938 93.875L146.688 96.1719L147.312 98.125Z" fill="white"/>
<path d="M118.335 132.731C118.554 134.604 118.663 135.762 118.663 136.204C118.663 136.869 118.442 137.428 118 137.879C117.562 138.33 116.854 138.676 115.874 138.918C114.894 139.16 113.609 139.28 112.019 139.28C110.793 139.28 109.797 139.189 109.031 139.007C108.27 138.829 107.705 138.542 107.336 138.146C106.967 137.749 106.782 137.227 106.782 136.58C106.782 136.234 106.83 135.735 106.926 135.083C107.021 134.431 107.14 133.75 107.281 133.039L107.979 133.135L108.751 133.23C108.519 135.021 108.402 136.104 108.402 136.478C108.639 136.678 109.09 136.831 109.756 136.936C110.421 137.04 111.273 137.093 112.312 137.093C113.365 137.093 114.302 137.043 115.122 136.942C115.947 136.842 116.596 136.687 117.07 136.478L116.517 133.285C116.631 133.253 116.849 133.187 117.173 133.087L117.453 132.998L118.335 132.731ZM113.857 141.283C113.762 141.493 113.641 141.746 113.495 142.042C113.354 142.343 113.238 142.584 113.146 142.767C112.914 142.694 112.575 142.559 112.128 142.363C111.686 142.172 111.378 142.017 111.205 141.898L111.923 140.422C112.155 140.495 112.481 140.625 112.9 140.812C113.324 140.998 113.643 141.156 113.857 141.283ZM127.263 139H126.306C126.183 139.852 125.948 140.572 125.602 141.16C125.26 141.748 124.827 142.19 124.303 142.486C123.779 142.783 123.186 142.931 122.525 142.931C122.202 142.931 121.835 142.885 121.425 142.794C121.019 142.703 120.632 142.589 120.263 142.452L120.604 140.832C121.279 140.905 121.881 140.941 122.409 140.941C123.052 140.941 123.571 140.764 123.968 140.408C124.369 140.053 124.615 139.554 124.706 138.911C124.31 138.97 123.758 139 123.052 139C122.2 139 121.557 138.834 121.124 138.501C120.691 138.168 120.475 137.608 120.475 136.819C120.475 135.99 120.6 135.272 120.851 134.666C121.106 134.055 121.454 133.59 121.896 133.271C122.343 132.952 122.844 132.793 123.4 132.793C123.961 132.793 124.453 132.943 124.877 133.244C125.301 133.545 125.64 133.996 125.896 134.598C126.155 135.195 126.315 135.933 126.374 136.812H127.263V139ZM122.054 136.648C122.163 136.708 122.327 136.756 122.546 136.792C122.769 136.828 123.027 136.847 123.318 136.847C123.729 136.847 124.193 136.833 124.713 136.806C124.649 136.063 124.496 135.521 124.255 135.179C124.018 134.832 123.697 134.659 123.291 134.659C122.867 134.659 122.55 134.839 122.341 135.199C122.136 135.555 122.04 136.038 122.054 136.648ZM130.243 132.253C130.758 132.253 131.38 132.353 132.109 132.554C132.843 132.754 133.581 133.005 134.324 133.306C135.067 133.606 135.732 133.907 136.32 134.208L136.067 135.056L135.876 135.691C135.188 136.525 134.472 137.182 133.729 137.66C132.991 138.139 132.173 138.483 131.275 138.692C130.378 138.897 129.32 139 128.104 139H127.263C127.181 139 127.121 138.975 127.085 138.925C127.049 138.87 127.023 138.768 127.01 138.617C126.992 138.467 126.982 138.23 126.982 137.906C126.982 137.583 126.992 137.346 127.01 137.195C127.023 137.045 127.049 136.945 127.085 136.895C127.121 136.84 127.181 136.812 127.263 136.812H128.172C129.152 136.812 129.981 136.765 130.66 136.669C131.344 136.569 131.961 136.4 132.513 136.163C133.064 135.922 133.6 135.582 134.119 135.145C133.486 134.889 132.772 134.664 131.979 134.468C131.191 134.267 130.494 134.14 129.888 134.085L129.491 135.801L129.245 135.712C129.213 135.698 129.181 135.687 129.149 135.678C129.118 135.669 129.09 135.66 129.067 135.65L128.213 135.35C128.309 134.548 128.443 133.923 128.616 133.477C128.789 133.025 129.006 132.709 129.266 132.526C129.525 132.344 129.851 132.253 130.243 132.253ZM132.69 129.812C132.595 130.022 132.474 130.275 132.328 130.571C132.187 130.868 132.071 131.107 131.979 131.289C131.743 131.216 131.403 131.084 130.961 130.893C130.519 130.701 130.211 130.546 130.038 130.428L130.756 128.944C130.993 129.022 131.321 129.156 131.74 129.348C132.164 129.535 132.481 129.689 132.69 129.812Z" fill="#D4B179"/>
<path d="M62.4844 170.836C62.5977 171.547 62.6836 172.135 62.7422 172.6C62.8047 173.064 62.8359 173.439 62.8359 173.725C62.8359 174.439 62.7207 175.068 62.4902 175.611C62.2598 176.154 61.9453 176.574 61.5469 176.871C61.1484 177.168 60.7051 177.316 60.2168 177.316C59.8965 177.316 59.5371 177.23 59.1387 177.059L59.3027 176.244C59.5449 176.283 59.8223 176.303 60.1348 176.303C60.5176 176.303 60.8535 176.184 61.1426 175.945C61.4355 175.711 61.6582 175.404 61.8105 175.025C61.9668 174.65 62.0449 174.26 62.0449 173.854L61.8926 173.027L61.4238 170.432L61.9512 170.221L62.3672 170.057L62.4844 170.836ZM62.1562 168.621L61.6934 168.41C61.252 168.211 60.9824 168.084 60.8848 168.029L61.3066 167.174C61.4902 167.24 61.6992 167.328 61.9336 167.438C62.1719 167.543 62.3867 167.652 62.5781 167.766L62.1562 168.621ZM66.9785 169.477C67.4395 169.477 67.8398 169.623 68.1797 169.916C68.5195 170.209 68.7812 170.643 68.9648 171.217C69.1484 171.787 69.2402 172.48 69.2402 173.297C69.2402 174.145 69.1133 174.869 68.8594 175.471C68.6094 176.076 68.2598 176.535 67.8105 176.848C67.3613 177.16 66.8418 177.316 66.252 177.316C66.0176 177.316 65.7461 177.289 65.4375 177.234C65.1328 177.18 64.8516 177.113 64.5938 177.035L64.7578 176.238C65.1094 176.281 65.584 176.303 66.1816 176.303C66.627 176.303 67.0137 176.199 67.3418 175.992C67.6699 175.789 67.9258 175.5 68.1094 175.125C68.2969 174.75 68.4043 174.311 68.4316 173.807C68.2324 173.869 67.9941 173.918 67.7168 173.953C67.4395 173.984 67.1543 174 66.8613 174C66.1504 174 65.625 173.889 65.2852 173.666C64.9453 173.443 64.7754 173.07 64.7754 172.547C64.7754 171.926 64.8672 171.383 65.0508 170.918C65.2383 170.453 65.498 170.098 65.8301 169.852C66.1621 169.602 66.5449 169.477 66.9785 169.477ZM65.5605 172.734C65.6973 172.801 65.8828 172.855 66.1172 172.898C66.3555 172.938 66.6367 172.957 66.9609 172.957C67.5234 172.957 68.0098 172.918 68.4199 172.84C68.373 172.039 68.2168 171.443 67.9512 171.053C67.6855 170.658 67.3379 170.461 66.9082 170.461C66.4473 170.461 66.1055 170.648 65.8828 171.023C65.6641 171.395 65.5547 171.9 65.5547 172.541L65.5605 172.734ZM74.1504 174C73.6738 174 73.3086 173.902 73.0547 173.707V173.725C73.0547 174.439 72.9395 175.068 72.709 175.611C72.4785 176.154 72.1641 176.574 71.7656 176.871C71.3672 177.168 70.9238 177.316 70.4355 177.316C70.1152 177.316 69.7559 177.23 69.3574 177.059L69.5215 176.244C69.7637 176.283 70.041 176.303 70.3535 176.303C70.7363 176.303 71.0723 176.184 71.3613 175.945C71.6543 175.711 71.877 175.404 72.0293 175.025C72.1855 174.65 72.2637 174.26 72.2637 173.854L72.1113 173.027L71.6426 170.432L72.1699 170.221L72.5859 170.057L72.873 172.014C72.9199 172.334 73.0469 172.57 73.2539 172.723C73.4648 172.871 73.7637 172.945 74.1504 172.945V174ZM76.998 169.371C77.0449 169.68 77.1094 170.188 77.1914 170.895C77.2773 171.598 77.3203 172.072 77.3203 172.318C77.3203 172.6 77.2793 172.84 77.1973 173.039C77.1191 173.238 76.9707 173.412 76.752 173.561C76.5215 173.717 76.1934 173.83 75.7676 173.9C75.3418 173.967 74.8047 174 74.1562 174C74.0625 174 74 173.965 73.9688 173.895C73.9336 173.82 73.916 173.678 73.916 173.467C73.916 173.256 73.9336 173.117 73.9688 173.051C74 172.98 74.0625 172.945 74.1562 172.945C74.7383 172.945 75.2227 172.93 75.6094 172.898C76 172.867 76.3301 172.801 76.5996 172.699C76.3027 170.879 76.1348 169.869 76.0957 169.67L76.4648 169.547L76.5996 169.506C76.6855 169.475 76.7402 169.457 76.7637 169.453L76.998 169.371ZM75.1055 176.514C74.9453 176.803 74.8633 176.949 74.8594 176.953C74.7812 176.914 74.6738 176.861 74.5371 176.795C74.4004 176.729 74.2969 176.678 74.2266 176.643C73.9414 176.506 73.7598 176.416 73.6816 176.373C73.6895 176.361 73.7402 176.266 73.834 176.086C73.8926 175.973 73.9824 175.805 74.1035 175.582C74.6113 175.785 75.0059 175.984 75.2871 176.18L75.1055 176.514ZM77.1387 176.162C77.1309 176.178 77.0645 176.305 76.9395 176.543C76.8145 176.785 76.7422 176.922 76.7227 176.953C76.5781 176.871 76.3379 176.75 76.002 176.59L75.5332 176.355C75.6309 176.188 75.7324 176 75.8379 175.793L75.9551 175.582C76.1426 175.652 76.3457 175.738 76.5645 175.84C76.7832 175.945 76.9746 176.053 77.1387 176.162ZM83.7949 172.131C83.7949 172.412 83.7676 172.656 83.7129 172.863C83.6582 173.07 83.5801 173.232 83.4785 173.35C83.2871 173.572 82.9551 173.746 82.4824 173.871C82.0098 173.996 81.4707 174.059 80.8652 174.059C80.5684 174.059 80.2441 174.025 79.8926 173.959C79.5449 173.893 79.2305 173.799 78.9492 173.678C78.9844 173.561 79.0254 173.42 79.0723 173.256C79.1191 173.088 79.1582 172.943 79.1895 172.822C79.4316 172.885 79.709 172.932 80.0215 172.963C80.334 172.99 80.6426 173.004 80.9473 173.004C81.334 173.004 81.7148 172.979 82.0898 172.928C82.4688 172.873 82.7734 172.789 83.0039 172.676C83.0039 172.195 82.9668 171.812 82.8926 171.527C82.8184 171.238 82.6797 170.98 82.4766 170.754C82.2734 170.527 81.9648 170.289 81.5508 170.039L80.4492 169.389L80.8477 168.486L82.0137 169.166C82.4668 169.428 82.8223 169.699 83.0801 169.98C83.3379 170.262 83.5215 170.574 83.6309 170.918C83.7402 171.258 83.7949 171.662 83.7949 172.131ZM88.2773 169.816H89.5605V171.076H88.2773V169.816ZM88.2773 172.74H89.5605V174H88.2773V172.74ZM99.334 174H98.8008C98.7734 174.652 98.6094 175.219 98.3086 175.699C98.0078 176.18 97.5625 176.553 96.9727 176.818C96.3828 177.084 95.6582 177.217 94.7988 177.217C94.084 177.217 93.4766 177.107 92.9766 176.889C92.4805 176.674 92.1016 176.357 91.8398 175.939C91.582 175.525 91.4531 175.023 91.4531 174.434C91.4531 174.023 91.5059 173.586 91.6113 173.121C91.7168 172.656 91.8926 172.082 92.1387 171.398L92.2734 171.48C92.3398 171.523 92.3965 171.559 92.4434 171.586C92.4902 171.613 92.5234 171.633 92.543 171.645C92.5938 171.672 92.6562 171.709 92.7305 171.756C92.8086 171.799 92.8711 171.836 92.918 171.867C92.5039 172.957 92.2617 173.758 92.1914 174.27C92.2266 174.867 92.4629 175.332 92.9004 175.664C93.3379 175.996 93.9922 176.162 94.8633 176.162C95.6133 176.162 96.2227 176.057 96.6914 175.846C97.1602 175.635 97.498 175.367 97.7051 175.043C97.916 174.719 98.0352 174.369 98.0625 173.994C96.832 173.963 95.9453 173.838 95.4023 173.619L95.6367 172.705C96.0195 172.795 96.4414 172.857 96.9023 172.893C97.3672 172.928 97.9668 172.945 98.7012 172.945H99.334V174ZM102.182 169.371C102.229 169.68 102.293 170.188 102.375 170.895C102.461 171.598 102.504 172.072 102.504 172.318C102.504 172.6 102.463 172.84 102.381 173.039C102.303 173.238 102.154 173.412 101.936 173.561C101.705 173.717 101.377 173.83 100.951 173.9C100.525 173.967 99.9883 174 99.3398 174C99.2461 174 99.1836 173.965 99.1523 173.895C99.1172 173.82 99.0996 173.678 99.0996 173.467C99.0996 173.256 99.1172 173.117 99.1523 173.051C99.1836 172.98 99.2461 172.945 99.3398 172.945C99.9219 172.945 100.406 172.93 100.793 172.898C101.184 172.867 101.514 172.801 101.783 172.699C101.486 170.879 101.318 169.869 101.279 169.67L101.648 169.547L101.783 169.506C101.869 169.475 101.924 169.457 101.947 169.453L102.182 169.371ZM101.145 168.533L100.682 168.322C100.24 168.123 99.9707 167.996 99.873 167.941L100.295 167.086C100.479 167.152 100.688 167.24 100.922 167.35C101.16 167.455 101.375 167.564 101.566 167.678L101.145 168.533ZM106.699 174C106.039 174 105.516 173.863 105.129 173.59C104.742 173.316 104.537 172.836 104.514 172.148L104.309 165.475L104.895 165.34L105.07 165.299C105.156 165.283 105.232 165.266 105.299 165.246V171.803C105.299 172.104 105.354 172.338 105.463 172.506C105.576 172.67 105.738 172.785 105.949 172.852C106.16 172.914 106.43 172.945 106.758 172.945H106.828V174H106.699ZM116.191 172.02C116.199 172.113 116.203 172.18 116.203 172.219C116.203 172.578 116.119 172.893 115.951 173.162C115.783 173.428 115.547 173.635 115.242 173.783C114.941 173.928 114.592 174 114.193 174C113.803 174 113.484 173.928 113.238 173.783C112.996 173.639 112.824 173.449 112.723 173.215C112.586 173.449 112.357 173.639 112.037 173.783C111.717 173.928 111.365 174 110.982 174C110.592 174 110.262 173.926 109.992 173.777C109.723 173.625 109.527 173.402 109.406 173.109C109.203 173.383 108.889 173.6 108.463 173.76C108.037 173.92 107.531 174 106.945 174H106.828C106.734 174 106.672 173.965 106.641 173.895C106.605 173.82 106.588 173.678 106.588 173.467C106.588 173.256 106.605 173.117 106.641 173.051C106.672 172.98 106.734 172.945 106.828 172.945H107.01C107.561 172.945 108.018 172.877 108.381 172.74C108.748 172.604 108.986 172.426 109.096 172.207C109.068 171.973 109.047 171.703 109.031 171.398C109.016 171.09 109.008 170.814 109.008 170.572L109.424 170.484C109.627 170.445 109.752 170.42 109.799 170.408C109.826 171.146 109.869 171.684 109.928 172.02C109.99 172.352 110.107 172.59 110.279 172.734C110.451 172.875 110.727 172.945 111.105 172.945C111.406 172.945 111.672 172.898 111.902 172.805C112.133 172.707 112.301 172.58 112.406 172.424C112.375 172.197 112.348 171.918 112.324 171.586C112.301 171.25 112.289 170.994 112.289 170.818C112.328 170.814 112.48 170.783 112.746 170.725C112.828 170.709 112.896 170.695 112.951 170.684C113.006 170.672 113.047 170.664 113.074 170.66C113.109 171.309 113.152 171.781 113.203 172.078C113.258 172.375 113.365 172.594 113.525 172.734C113.686 172.875 113.938 172.945 114.281 172.945C114.531 172.945 114.758 172.914 114.961 172.852C115.168 172.785 115.342 172.693 115.482 172.576L115.283 171.182L115.066 169.67L115.963 169.371L116.045 170.309C116.068 170.59 116.094 170.879 116.121 171.176C116.148 171.473 116.172 171.754 116.191 172.02ZM119.842 173.725C119.842 174.439 119.727 175.068 119.496 175.611C119.266 176.154 118.951 176.574 118.553 176.871C118.154 177.168 117.711 177.316 117.223 177.316C116.852 177.316 116.361 177.23 115.752 177.059L115.91 176.244C116.371 176.283 116.781 176.303 117.141 176.303C117.523 176.303 117.859 176.184 118.148 175.945C118.441 175.711 118.664 175.404 118.816 175.025C118.973 174.65 119.051 174.26 119.051 173.854L118.898 173.027L118.43 170.432L118.957 170.221L119.373 170.057L119.49 170.836C119.604 171.547 119.689 172.135 119.748 172.6C119.811 173.064 119.842 173.439 119.842 173.725ZM126.797 170.836C126.91 171.547 126.996 172.135 127.055 172.6C127.117 173.064 127.148 173.439 127.148 173.725C127.148 174.439 127.033 175.068 126.803 175.611C126.572 176.154 126.258 176.574 125.859 176.871C125.461 177.168 125.018 177.316 124.529 177.316C124.209 177.316 123.85 177.23 123.451 177.059L123.615 176.244C123.857 176.283 124.135 176.303 124.447 176.303C124.83 176.303 125.166 176.184 125.455 175.945C125.748 175.711 125.971 175.404 126.123 175.025C126.279 174.65 126.357 174.26 126.357 173.854L126.205 173.027L125.736 170.432L126.264 170.221L126.68 170.057L126.797 170.836ZM126.469 168.621L126.006 168.41C125.564 168.211 125.295 168.084 125.197 168.029L125.619 167.174C125.803 167.24 126.012 167.328 126.246 167.438C126.484 167.543 126.699 167.652 126.891 167.766L126.469 168.621ZM131.291 169.477C131.752 169.477 132.152 169.623 132.492 169.916C132.832 170.209 133.094 170.643 133.277 171.217C133.461 171.787 133.553 172.48 133.553 173.297C133.553 174.145 133.426 174.869 133.172 175.471C132.922 176.076 132.572 176.535 132.123 176.848C131.674 177.16 131.154 177.316 130.564 177.316C130.33 177.316 130.059 177.289 129.75 177.234C129.445 177.18 129.164 177.113 128.906 177.035L129.07 176.238C129.422 176.281 129.896 176.303 130.494 176.303C130.939 176.303 131.326 176.199 131.654 175.992C131.982 175.789 132.238 175.5 132.422 175.125C132.609 174.75 132.717 174.311 132.744 173.807C132.545 173.869 132.307 173.918 132.029 173.953C131.752 173.984 131.467 174 131.174 174C130.463 174 129.938 173.889 129.598 173.666C129.258 173.443 129.088 173.07 129.088 172.547C129.088 171.926 129.18 171.383 129.363 170.918C129.551 170.453 129.811 170.098 130.143 169.852C130.475 169.602 130.857 169.477 131.291 169.477ZM129.873 172.734C130.01 172.801 130.195 172.855 130.43 172.898C130.668 172.938 130.949 172.957 131.273 172.957C131.836 172.957 132.322 172.918 132.732 172.84C132.686 172.039 132.529 171.443 132.264 171.053C131.998 170.658 131.65 170.461 131.221 170.461C130.76 170.461 130.418 170.648 130.195 171.023C129.977 171.395 129.867 171.9 129.867 172.541L129.873 172.734ZM137.016 170.836C137.129 171.547 137.215 172.135 137.273 172.6C137.336 173.064 137.367 173.439 137.367 173.725C137.367 174.439 137.252 175.068 137.021 175.611C136.791 176.154 136.477 176.574 136.078 176.871C135.68 177.168 135.236 177.316 134.748 177.316C134.428 177.316 134.068 177.23 133.67 177.059L133.834 176.244C134.076 176.283 134.354 176.303 134.666 176.303C135.049 176.303 135.385 176.184 135.674 175.945C135.967 175.711 136.189 175.404 136.342 175.025C136.498 174.65 136.576 174.26 136.576 173.854L136.424 173.027L135.955 170.432L136.482 170.221L136.898 170.057L137.016 170.836ZM147.779 172.945V174H147.586C147.023 174 146.582 173.91 146.262 173.73C145.941 173.551 145.715 173.266 145.582 172.875C145.113 173.066 144.541 173.162 143.865 173.162C143.186 173.162 142.68 173.059 142.348 172.852C142.02 172.645 141.855 172.311 141.855 171.85C141.855 170.826 142.059 170.043 142.465 169.5C142.875 168.957 143.469 168.686 144.246 168.686C144.633 168.686 144.965 168.729 145.242 168.814C145.523 168.9 145.738 169.02 145.887 169.172C146.035 169.32 146.115 169.488 146.127 169.676L146.238 171.533C146.262 171.896 146.314 172.178 146.396 172.377C146.479 172.576 146.617 172.721 146.812 172.811C147.012 172.9 147.295 172.945 147.662 172.945H147.779ZM142.646 171.955C142.975 172.057 143.422 172.107 143.988 172.107C144.539 172.107 145.018 172.049 145.424 171.932L145.236 169.729C144.803 169.65 144.445 169.611 144.164 169.611C143.832 169.611 143.557 169.689 143.338 169.846C143.119 169.998 142.951 170.246 142.834 170.59C142.721 170.934 142.658 171.389 142.646 171.955ZM150.627 169.371C150.674 169.68 150.738 170.188 150.82 170.895C150.906 171.598 150.949 172.072 150.949 172.318C150.949 172.6 150.908 172.84 150.826 173.039C150.748 173.238 150.6 173.412 150.381 173.561C150.15 173.717 149.822 173.83 149.396 173.9C148.971 173.967 148.434 174 147.785 174C147.691 174 147.629 173.965 147.598 173.895C147.562 173.82 147.545 173.678 147.545 173.467C147.545 173.256 147.562 173.117 147.598 173.051C147.629 172.98 147.691 172.945 147.785 172.945C148.367 172.945 148.852 172.93 149.238 172.898C149.629 172.867 149.959 172.801 150.229 172.699C149.932 170.879 149.764 169.869 149.725 169.67L150.094 169.547L150.229 169.506C150.314 169.475 150.369 169.457 150.393 169.453L150.627 169.371ZM149.432 177.012L148.969 176.801C148.527 176.602 148.258 176.475 148.16 176.42L148.582 175.564C149.082 175.756 149.506 175.953 149.854 176.156L149.432 177.012ZM163.711 172.945V174H163.535C163.25 174 162.996 173.969 162.773 173.906C162.555 173.84 162.375 173.75 162.234 173.637C162.238 173.668 162.24 173.707 162.24 173.754C162.24 174.465 162.09 175.08 161.789 175.6C161.488 176.119 161.059 176.518 160.5 176.795C159.941 177.076 159.285 177.217 158.531 177.217C157.895 177.217 157.342 177.107 156.873 176.889C156.408 176.674 156.051 176.357 155.801 175.939C155.551 175.525 155.426 175.023 155.426 174.434C155.426 174.023 155.479 173.586 155.584 173.121C155.689 172.656 155.865 172.082 156.111 171.398C156.092 171.387 156.223 171.465 156.504 171.633L156.891 171.867C156.477 172.957 156.234 173.758 156.164 174.27C156.195 174.859 156.418 175.322 156.832 175.658C157.246 175.994 157.834 176.162 158.596 176.162C159.186 176.162 159.697 176.059 160.131 175.852C160.568 175.648 160.902 175.361 161.133 174.99C161.367 174.623 161.484 174.199 161.484 173.719L160.822 170.432L161.309 170.244C161.395 170.201 161.547 170.139 161.766 170.057L162.064 171.879C162.127 172.258 162.279 172.531 162.521 172.699C162.764 172.863 163.121 172.945 163.594 172.945H163.711ZM158.877 169.834L158.414 169.623C157.973 169.424 157.703 169.297 157.605 169.242L158.027 168.387C158.211 168.453 158.42 168.541 158.654 168.65C158.893 168.756 159.107 168.865 159.299 168.979L158.877 169.834ZM167.684 169.371C167.738 169.754 167.805 170.279 167.883 170.947C167.965 171.615 168.006 172.072 168.006 172.318C168.006 172.596 167.965 172.834 167.883 173.033C167.801 173.232 167.648 173.408 167.426 173.561C167.191 173.725 166.836 173.84 166.359 173.906C165.887 173.969 165.195 174 164.285 174H163.711C163.617 174 163.555 173.965 163.523 173.895C163.488 173.82 163.471 173.678 163.471 173.467C163.471 173.256 163.488 173.117 163.523 173.051C163.555 172.98 163.617 172.945 163.711 172.945H164.285C165.137 172.945 165.783 172.932 166.225 172.904C166.666 172.873 167.027 172.803 167.309 172.693C166.992 170.873 166.814 169.865 166.775 169.67C166.787 169.666 166.838 169.648 166.928 169.617L167.25 169.518L167.684 169.371ZM164.789 176.514C164.629 176.803 164.547 176.949 164.543 176.953C164.465 176.914 164.357 176.861 164.221 176.795C164.084 176.729 163.98 176.678 163.91 176.643C163.625 176.506 163.443 176.416 163.365 176.373C163.373 176.361 163.424 176.266 163.518 176.086C163.576 175.973 163.666 175.805 163.787 175.582C164.295 175.785 164.689 175.984 164.971 176.18L164.789 176.514ZM166.822 176.162C166.814 176.178 166.748 176.305 166.623 176.543C166.498 176.785 166.426 176.922 166.406 176.953C166.262 176.871 166.021 176.75 165.686 176.59L165.217 176.355C165.314 176.188 165.416 176 165.521 175.793L165.639 175.582C165.826 175.652 166.029 175.738 166.248 175.84C166.467 175.945 166.658 176.053 166.822 176.162ZM172.752 174C172.275 174 171.91 173.902 171.656 173.707V173.725C171.656 174.439 171.541 175.068 171.311 175.611C171.08 176.154 170.766 176.574 170.367 176.871C169.969 177.168 169.525 177.316 169.037 177.316C168.717 177.316 168.357 177.23 167.959 177.059L168.123 176.244C168.365 176.283 168.643 176.303 168.955 176.303C169.338 176.303 169.674 176.184 169.963 175.945C170.256 175.711 170.479 175.404 170.631 175.025C170.787 174.65 170.865 174.26 170.865 173.854L170.713 173.027L170.244 170.432L170.771 170.221L171.188 170.057L171.475 172.014C171.521 172.334 171.648 172.57 171.855 172.723C172.066 172.871 172.365 172.945 172.752 172.945V174ZM175.107 169.09C175.596 169.09 176.184 169.184 176.871 169.371C177.562 169.555 178.219 169.768 178.84 170.01C179.461 170.248 179.91 170.441 180.188 170.59L180.082 170.924C180.066 170.979 180.045 171.049 180.018 171.135C179.994 171.217 179.975 171.283 179.959 171.334C179.377 172.045 178.764 172.594 178.119 172.98C177.479 173.367 176.791 173.635 176.057 173.783C175.322 173.928 174.463 174 173.479 174H172.758C172.691 174 172.643 173.986 172.611 173.959C172.576 173.928 172.553 173.875 172.541 173.801C172.525 173.727 172.518 173.615 172.518 173.467C172.518 173.322 172.525 173.213 172.541 173.139C172.553 173.064 172.576 173.014 172.611 172.986C172.643 172.959 172.691 172.945 172.758 172.945H173.537C174.416 172.945 175.174 172.893 175.811 172.787C176.451 172.678 177.041 172.486 177.58 172.213C178.119 171.936 178.641 171.547 179.145 171.047C178.512 170.781 177.775 170.545 176.936 170.338C176.1 170.127 175.371 170.006 174.75 169.975L174.363 171.691C174.309 171.676 174.258 171.66 174.211 171.645C174.168 171.625 174.139 171.613 174.123 171.609C174.076 171.586 173.99 171.555 173.865 171.516L173.725 171.463C173.791 170.807 173.881 170.309 173.994 169.969C174.107 169.629 174.25 169.398 174.422 169.277C174.598 169.152 174.826 169.09 175.107 169.09ZM176.742 168L176.279 167.789C175.838 167.59 175.568 167.463 175.471 167.408L175.893 166.553C176.076 166.619 176.285 166.707 176.52 166.816C176.758 166.922 176.973 167.031 177.164 167.145L176.742 168ZM183.861 164.59L183.984 164.414C183.992 164.422 184.039 164.461 184.125 164.531L184.494 164.848C184.299 165.141 184.146 165.354 184.037 165.486C183.932 165.619 183.832 165.711 183.738 165.762C183.645 165.812 183.529 165.838 183.393 165.838C183.135 165.838 182.834 165.795 182.49 165.709C182.15 165.619 181.74 165.482 181.26 165.299L180.844 166.078L180.264 165.721C180.404 165.412 180.533 165.17 180.65 164.994C180.764 164.818 180.875 164.693 180.984 164.619C181.094 164.541 181.215 164.502 181.348 164.502C181.441 164.502 181.535 164.516 181.629 164.543C181.727 164.566 181.865 164.611 182.045 164.678C182.264 164.76 182.482 164.836 182.701 164.906C182.924 164.973 183.188 165.039 183.492 165.105L183.861 164.59ZM182.912 173.965C182.658 174.02 182.518 174.049 182.49 174.053C182.479 174.057 182.422 174.068 182.32 174.088L182.174 174.117L181.91 166.98L182.514 166.84C182.588 166.828 182.721 166.797 182.912 166.746V173.965Z" fill="white" fill-opacity="0.56"/>
</svg>
