<svg width="24" height="24" viewBox="0 0 24 24" fill="none" xmlns="http://www.w3.org/2000/svg">
<g opacity="0.32">
<path d="M12 21.2714C16.7038 21.2714 19.4773 21.1695 20.868 21.0959C21.5117 21.0618 22 20.5291 22 19.8845V8.19438C22 7.74468 21.8551 7.30348 21.5366 6.98598C19.6683 5.12358 15.3747 2.72332 12.465 2.08818C12.1575 2.02106 11.8425 2.02106 11.535 2.08818C8.62535 2.72332 4.33171 5.12358 2.4634 6.98598C2.1449 7.30348 2 7.74468 2 8.19438V19.8845C2 20.5291 2.48829 21.0618 3.13195 21.0959C4.52271 21.1695 7.29615 21.2714 12 21.2714Z" fill="#3B7B62"/>
<path d="M2.1787 18.7287C2.30863 18.3515 2.68628 18.18 3.0846 18.1574C4.11911 18.0986 6.6517 18.0001 12 18.0001C17.3483 18.0001 19.8809 18.0986 20.9154 18.1574C21.3137 18.18 21.6914 18.3515 21.8213 18.7287C21.9176 19.0082 22 19.4176 22 20.0001C22 20.5826 21.9176 20.9919 21.8213 21.2714C21.6914 21.6486 21.3137 21.8202 20.9154 21.8428C19.8809 21.9015 17.3483 22.0001 12 22.0001C6.6517 22.0001 4.11911 21.9015 3.0846 21.8428C2.68628 21.8202 2.30863 21.6486 2.1787 21.2714C2.08243 20.9919 2 20.5826 2 20.0001C2 19.4176 2.08243 19.0082 2.1787 18.7287Z" fill="#3B7B62"/>
</g>
<path d="M15.8934 12C14.6764 12.0055 13.3797 12.0085 12 12.0085C10.6203 12.0085 9.32363 12.0055 8.10655 12C8.05544 12.897 8 14.4891 8 17.1732C8 19.5413 8.04316 21.0594 8.08842 22C9.3 21.9958 10.6019 21.9935 12 21.9935C13.3981 21.9935 14.7 21.9958 15.9116 22C15.9568 21.0594 16 19.5413 16 17.1732C16 14.4891 15.9446 12.897 15.8934 12Z" fill="#3B7B62"/>
</svg>
