<svg width="24" height="24" viewBox="0 0 24 24" fill="none" xmlns="http://www.w3.org/2000/svg">
<g opacity="0.32">
<path d="M12.5844 7.76946C12.851 7.23353 13.0009 6.62933 13.0009 5.99011C13.0009 5.35089 12.851 4.74669 12.5844 4.21076C13.1306 3.47036 14.0092 2.99011 14.9999 2.99011C16.6568 2.99011 17.9999 4.33326 17.9999 5.99011C17.9999 7.64697 16.6568 8.99011 14.9999 8.99011C14.0092 8.99011 13.1306 8.50986 12.5844 7.76946Z" fill="#637381"/>
<path d="M14.0597 19.7559C14.6563 19.9067 15.3119 19.9901 15.9999 19.9901C18.7614 19.9901 20.9999 18.647 20.9999 16.9901C20.9999 15.3333 18.7614 13.9901 15.9999 13.9901C15.311 13.9901 14.6545 14.0737 14.0573 14.225C15.2612 14.9434 16.0009 15.9179 16.0009 16.9911C16.0009 18.0636 15.2622 19.0376 14.0597 19.7559Z" fill="#637381"/>
</g>
<path d="M9.00098 9.99011C11.2101 9.99011 13.001 8.19925 13.001 5.99011C13.001 3.78097 11.2101 1.99011 9.00098 1.99011C6.79184 1.99011 5.00098 3.78097 5.00098 5.99011C5.00098 8.19925 6.79184 9.99011 9.00098 9.99011Z" fill="#637381"/>
<path d="M9.00098 20.9911C12.867 20.9911 16.001 19.2003 16.001 16.9911C16.001 14.782 12.867 12.9911 9.00098 12.9911C5.13498 12.9911 2.00098 14.782 2.00098 16.9911C2.00098 19.2003 5.13498 20.9911 9.00098 20.9911Z" fill="#637381"/>
</svg>
