<svg width="24" height="24" viewBox="0 0 24 24" fill="none" xmlns="http://www.w3.org/2000/svg">
<path opacity="0.32" d="M5.00007 21.9996C5.53051 21.9996 6.03921 21.7889 6.41429 21.4138C6.78936 21.0388 7.00007 20.5301 7.00007 19.9996V13.9996C7.00007 13.4692 6.78936 12.9605 6.41429 12.5854C6.03921 12.2103 5.53051 11.9996 5.00007 11.9996V10.9996C5.00007 9.14312 5.73757 7.36264 7.05033 6.04989C8.36308 4.73713 10.1436 3.99963 12.0001 3.99963C13.8566 3.99963 15.6371 4.73713 16.9498 6.04989C18.2626 7.36264 19.0001 9.14312 19.0001 10.9996V11.9996C18.4696 11.9996 17.9609 12.2103 17.5859 12.5854C17.2108 12.9605 17.0001 13.4692 17.0001 13.9996V19.9996H14.0001C13.7349 19.9996 13.4805 20.105 13.293 20.2925C13.1054 20.4801 13.0001 20.7344 13.0001 20.9996C13.0001 21.2649 13.1054 21.5192 13.293 21.7067C13.4805 21.8943 13.7349 21.9996 14.0001 21.9996H19.0001C20.1461 21.9962 21.2561 21.5992 22.1444 20.8751C23.0327 20.151 23.6452 19.1437 23.8795 18.0219C24.1138 16.9001 23.9556 15.7318 23.4315 14.7127C22.9073 13.6936 22.0489 12.8855 21.0001 12.4236V10.9996C21.0001 8.61269 20.0519 6.3235 18.364 4.63567C16.6762 2.94785 14.387 1.99963 12.0001 1.99963C9.61312 1.99963 7.32394 2.94785 5.63611 4.63567C3.94828 6.3235 3.00007 8.61269 3.00007 10.9996V12.4236C1.95123 12.8855 1.09287 13.6936 0.568694 14.7127C0.0445153 15.7318 -0.113666 16.9001 0.12063 18.0219C0.354927 19.1437 0.96748 20.151 1.85574 20.8751C2.74401 21.5992 3.85406 21.9962 5.00007 21.9996Z" fill="#637381"/>
<path d="M16 16C16 16.2652 15.8946 16.5196 15.7071 16.7071C15.5196 16.8946 15.2652 17 15 17C14.7348 17 14.4804 16.8946 14.2929 16.7071C14.1054 16.5196 14 16.2652 14 16C14 15.7348 14.1054 15.4804 14.2929 15.2929C14.4804 15.1054 14.7348 15 15 15C15.2652 15 15.5196 15.1054 15.7071 15.2929C15.8946 15.4804 16 15.7348 16 16Z" fill="#637381"/>
<path d="M13 16C13 16.2652 12.8946 16.5196 12.7071 16.7071C12.5196 16.8946 12.2652 17 12 17C11.7348 17 11.4804 16.8946 11.2929 16.7071C11.1054 16.5196 11 16.2652 11 16C11 15.7348 11.1054 15.4804 11.2929 15.2929C11.4804 15.1054 11.7348 15 12 15C12.2652 15 12.5196 15.1054 12.7071 15.2929C12.8946 15.4804 13 15.7348 13 16Z" fill="#637381"/>
<path d="M10 16C10 16.2652 9.89464 16.5196 9.70711 16.7071C9.51957 16.8946 9.26522 17 9 17C8.73478 17 8.48043 16.8946 8.29289 16.7071C8.10536 16.5196 8 16.2652 8 16C8 15.7348 8.10536 15.4804 8.29289 15.2929C8.48043 15.1054 8.73478 15 9 15C9.26522 15 9.51957 15.1054 9.70711 15.2929C9.89464 15.4804 10 15.7348 10 16Z" fill="#637381"/>
</svg>
