<svg width="28" height="28" viewBox="0 0 28 28" fill="none" xmlns="http://www.w3.org/2000/svg">
<path d="M5.28806 21.2921L13.2851 13.2951L14.6991 14.7091L6.70206 22.7061L5.28806 21.2921Z" fill="#212B36"/>
<path d="M15.0001 28.0001C14.8734 28.0004 14.7479 27.9766 14.6301 27.9301C14.4662 27.8648 14.3226 27.7573 14.2137 27.6185C14.1048 27.4798 14.0346 27.3147 14.0101 27.1401L13.0101 20.1401L15.0101 19.8601L15.7601 25.1301L19.0001 22.5201V15.0001C18.9993 14.8685 19.0245 14.738 19.0743 14.6162C19.1241 14.4943 19.1974 14.3835 19.2901 14.2901L23.3601 10.2201C24.1987 9.38711 24.8638 8.39613 25.317 7.30445C25.7701 6.21276 26.0023 5.04206 26.0001 3.86006V2.00006H24.1401C22.9581 1.99782 21.7874 2.22999 20.6957 2.68314C19.604 3.13629 18.613 3.80142 17.7801 4.64006L13.7101 8.71006C13.6166 8.80274 13.5058 8.87607 13.384 8.92583C13.2621 8.9756 13.1317 9.00082 13.0001 9.00006H5.48006L2.87006 12.2601L8.14006 13.0101L7.86006 15.0101L0.860065 14.0101C0.685407 13.9856 0.520336 13.9153 0.381594 13.8064C0.242852 13.6975 0.135375 13.5539 0.070065 13.3901C0.00394598 13.2251 -0.0170098 13.0455 0.00935502 12.8697C0.0357198 12.6939 0.108452 12.5284 0.220065 12.3901L4.22006 7.39006C4.31218 7.27037 4.43022 7.1731 4.56531 7.10556C4.7004 7.03801 4.84904 7.00194 5.00006 7.00006H12.5901L16.3601 3.22006C17.3792 2.19517 18.5917 1.3828 19.9272 0.830052C21.2627 0.277309 22.6947 -0.00480712 24.1401 6.19679e-05H26.0001C26.5305 6.19679e-05 27.0392 0.210776 27.4143 0.585848C27.7894 0.960921 28.0001 1.46963 28.0001 2.00006V3.86006C28.0049 5.30543 27.7228 6.73739 27.1701 8.0729C26.6173 9.40841 25.805 10.6209 24.7801 11.6401L21.0001 15.4101V23.0001C20.9994 23.1503 20.9648 23.2984 20.8991 23.4334C20.8333 23.5685 20.7379 23.6869 20.6201 23.7801L15.6201 27.7801C15.4441 27.9212 15.2256 27.9988 15.0001 28.0001Z" fill="#212B36"/>
</svg>
