<svg width="32" height="33" viewBox="0 0 32 33" fill="none" xmlns="http://www.w3.org/2000/svg">
<path fill-rule="evenodd" clip-rule="evenodd" d="M18.4041 7.61064C18.4041 5.15731 20.4041 3.16664 22.8681 3.16664C23.4531 3.16524 24.0326 3.27907 24.5736 3.50164C25.1146 3.72422 25.6065 4.05117 26.0211 4.46383C26.4358 4.8765 26.7651 5.36679 26.9902 5.90672C27.2154 6.44665 27.332 7.02564 27.3334 7.61064C27.3334 10.0653 25.3334 12.056 22.8681 12.056C22.2769 12.0567 21.6914 11.9399 21.1457 11.7124C20.6 11.4849 20.105 11.1511 19.6894 10.7306L13.5094 14.9386C13.6815 15.796 13.5971 16.685 13.2667 17.4946L20.0427 21.948C20.8408 21.2971 21.8396 20.9424 22.8694 20.944C23.4544 20.9427 24.0339 21.0568 24.5749 21.2795C25.1158 21.5022 25.6076 21.8293 26.0221 22.2421C26.4366 22.6549 26.7658 23.1453 26.9908 23.6853C27.2158 24.2253 27.3322 24.8043 27.3334 25.3893C27.3334 27.8426 25.3334 29.8333 22.8681 29.8333C21.6869 29.8358 20.553 29.369 19.7159 28.5356C18.8788 27.7023 18.4069 26.5705 18.4041 25.3893C18.403 24.7661 18.5344 24.1499 18.7894 23.5813L12.0667 19.1666C11.2526 19.8745 10.2096 20.2634 9.13075 20.2613C8.5457 20.2627 7.96612 20.1488 7.4251 19.9261C6.88409 19.7035 6.39225 19.3764 5.9777 18.9636C5.56314 18.5507 5.23399 18.0603 5.00905 17.5202C4.78411 16.9801 4.6678 16.401 4.66675 15.816C4.66797 15.231 4.78442 14.6521 5.00943 14.1122C5.23445 13.5722 5.56363 13.0819 5.97817 12.6692C6.39271 12.2566 6.88448 11.9296 7.42541 11.707C7.96634 11.4844 8.54582 11.3706 9.13075 11.372C10.5494 11.372 11.8107 12.0293 12.6281 13.0533L18.6187 8.97464C18.4762 8.53401 18.4038 8.07374 18.4041 7.61064Z" fill="white"/>
</svg>
